:SAMPLES-PER-SECOND 30
:FULLY-SPECIFIED
:DEGREES
484
root  -2.08924 36.7986 14.5738 -174.687 -59.3236 175.093
RightUpLeg  -3.12915 -6.16452 -16.8041
RightLeg  42.1057 1.61799 1.27464
RightFoot  -12.5495 0.243622 30.5995
RightToes  -1.39699e-009 0 -3.6325e-017
Spine  20.2575 3.95324 2.91167
Spine1  18.4816 -0.300189 14.2929
HEad  -33.3423 -49.3259 20.7712
LeftShoulder1  0.956569 -4.0943 -4.70359
LeftArm  18.8193 -36.1947 -77.7563
LeftForeArm  7.41755 -76.9718 -71.0186
LeftHand  -1.14202 2.10141 39.3016
RightShoulder  1.83477 6.68408 10.8194
RightArm  21.1175 -3.0848 57.8359
RightForeArm  73.5038 68.7043 144.977
RightHand  -1.63842 0.978534 -29.4776
LeftUpLeg  -32.547 -12.7562 1.46378
LeftLeg  36.3735 -8.30447 -6.15896
LeftFoot  -6.32568 0.323232 -6.51062
LeftToes  3.40148e-010 1.80944e-010 1.01921e-010
485
root  -2.07015 36.7806 14.5612 -174.553 -59.138 174.965
RightUpLeg  -3.38844 -6.03288 -16.8497
RightLeg  42.4106 1.58407 1.25637
RightFoot  -12.574 0.250466 30.6267
RightToes  -1.39699e-009 0 -3.6325e-017
Spine  20.3179 4.09047 2.78697
Spine1  18.4916 -0.240372 14.4682
HEad  -33.4474 -49.3866 20.7251
LeftShoulder1  0.975571 -4.11578 -4.94526
LeftArm  18.9316 -36.2341 -77.6832
LeftForeArm  7.21638 -76.9544 -70.7834
LeftHand  -1.14647 2.09569 39.3789
RightShoulder  1.81611 6.70346 10.577
RightArm  21.3183 -3.23538 57.9955
RightForeArm  72.9561 68.7376 144.895
RightHand  -1.50639 0.377239 -29.8811
LeftUpLeg  -32.619 -12.6403 1.44611
LeftLeg  36.4595 -8.26335 -6.14638
LeftFoot  -6.40394 0.321037 -6.55218
LeftToes  3.40148e-010 1.80944e-010 1.01921e-010
486
root  -2.06934 36.7656 14.5517 -174.346 -58.9943 174.812
RightUpLeg  -3.63818 -5.93622 -16.9238
RightLeg  42.6532 1.54165 1.22624
RightFoot  -12.5524 0.245428 30.689
RightToes  -1.39699e-009 0 -3.6325e-017
Spine  20.2347 4.14111 2.7942
Spine1  18.6147 -0.210378 14.496
HEad  -33.4209 -49.439 20.5508
LeftShoulder1  0.998907 -4.14251 -5.239
LeftArm  18.979 -36.1847 -77.5489
LeftForeArm  7.41608 -76.959 -70.8003
LeftHand  -1.15053 2.07393 39.2649
RightShoulder  1.80186 6.66672 10.4927
RightArm  21.1622 -3.38238 58.0399
RightForeArm  77.6799 68.9623 144.656
RightHand  -1.54741 1.00708 -27.6898
LeftUpLeg  -32.7293 -12.5681 1.40047
LeftLeg  36.5385 -8.21077 -6.1232
LeftFoot  -6.45821 0.319286 -6.57627
LeftToes  3.40148e-010 1.80944e-010 1.01921e-010
487
root  -2.07587 36.756 14.5371 -174.206 -58.9698 174.7
RightUpLeg  -3.70955 -5.84728 -16.9582
RightLeg  42.7397 1.54779 1.23626
RightFoot  -12.596 0.257315 30.7106
RightToes  -1.39699e-009 0 -3.6325e-017
Spine  20.1314 4.08687 2.87055
Spine1  18.7411 -0.25978 14.4721
HEad  -33.1976 -49.3868 20.2318
LeftShoulder1  1.01137 -4.22011 -5.27341
LeftArm  18.8552 -36.0271 -77.3785
LeftForeArm  7.64215 -76.974 -70.988
LeftHand  -1.20061 1.93832 39.341
RightShoulder  1.81053 6.66666 10.5878
RightArm  21.432 -3.42345 57.9637
RightForeArm  75.9472 68.7871 144.93
RightHand  -1.50835 0.429655 -29.1971
LeftUpLeg  -32.7993 -12.4943 1.33534
LeftLeg  36.6269 -8.20686 -6.14027
LeftFoot  -6.41467 0.319474 -6.52894
LeftToes  3.40148e-010 1.80944e-010 1.01921e-010
488
root  -2.0709 36.7551 14.5106 -174.143 -59.0022 174.686
RightUpLeg  -3.70705 -5.86764 -16.9219
RightLeg  42.7146 1.60161 1.28814
RightFoot  -12.6914 0.282232 30.6629
RightToes  -1.39699e-009 0 -3.6325e-017
Spine  20.0578 4.06531 2.88332
Spine1  18.7863 -0.334939 14.6133
HEad  -33.0485 -49.3009 20.0098
LeftShoulder1  1.01486 -4.28862 -5.19393
LeftArm  18.7512 -35.8981 -77.2333
LeftForeArm  7.81188 -76.9967 -71.3289
LeftHand  -1.26089 1.78754 39.5577
RightShoulder  1.82306 6.76465 10.5345
RightArm  22.3159 -3.50847 57.8739
RightForeArm  57.8809 67.8625 146.385
RightHand  0.118291 -5.37165 -38.6599
LeftUpLeg  -32.8681 -12.391 1.3304
LeftLeg  36.6792 -8.24923 -6.18565
LeftFoot  -6.24004 0.324076 -6.43185
LeftToes  3.40148e-010 1.80944e-010 1.01921e-010
489
root  -2.05586 36.7674 14.479 -174.047 -59.0054 174.721
RightUpLeg  -3.80049 -6.07943 -16.8745
RightLeg  42.6643 1.64833 1.3316
RightFoot  -12.6748 0.276773 30.5803
RightToes  -1.39699e-009 0 -3.6325e-017
Spine  19.9366 4.13274 2.86922
Spine1  18.8068 -0.347661 14.8364
HEad  -33.1467 -49.2949 20.063
LeftShoulder1  1.02052 -4.2978 -5.2586
LeftArm  18.8539 -35.8738 -77.2247
LeftForeArm  7.95982 -77.0095 -71.5099
LeftHand  -1.26458 1.78072 39.5939
RightShoulder  1.81926 6.84008 10.3482
RightArm  22.4459 -3.47676 57.8879
RightForeArm  35.5278 67.5956 147.539
RightHand  6.83305 -19.0378 -51.8969
LeftUpLeg  -32.9595 -12.273 1.39904
LeftLeg  36.5957 -8.32498 -6.22608
LeftFoot  -6.00281 0.333599 -6.37994
LeftToes  3.40148e-010 1.80944e-010 1.01921e-010
490
root  -2.03697 36.7937 14.4491 -173.934 -58.9796 174.733
RightUpLeg  -3.903 -6.30592 -16.8448
RightLeg  42.561 1.7085 1.38534
RightFoot  -12.5541 0.243243 30.4551
RightToes  -1.39699e-009 0 -3.6325e-017
Spine  19.8362 4.19853 2.92838
Spine1  18.7873 -0.28425 14.8988
HEad  -33.1792 -49.3409 20.1295
LeftShoulder1  1.02951 -4.31448 -5.35679
LeftArm  19.0384 -35.8566 -77.3625
LeftForeArm  7.73028 -76.9881 -71.2048
LeftHand  -1.2217 1.90094 39.5842
RightShoulder  1.81129 6.76682 10.4025
RightArm  22.6962 -3.52943 57.978
RightForeArm  35.4203 68.7504 145.606
RightHand  12.9825 -30.1854 -54.0982
LeftUpLeg  -32.9724 -12.1107 1.46323
LeftLeg  36.3641 -8.43918 -6.26166
LeftFoot  -5.78373 0.34435 -6.37678
LeftToes  3.40148e-010 1.80944e-010 1.01921e-010
491
root  -2.00796 36.8267 14.4189 -173.877 -58.9406 174.709
RightUpLeg  -3.87335 -6.36013 -16.807
RightLeg  42.3563 1.82329 1.48671
RightFoot  -12.5489 0.239781 30.2734
RightToes  -1.39699e-009 0 -3.6325e-017
Spine  19.9119 4.19991 3.07489
Spine1  18.6204 -0.171581 14.7412
HEad  -32.9122 -49.3657 19.9442
LeftShoulder1  1.03063 -4.38155 -5.24681
LeftArm  19.1385 -35.8032 -77.4976
LeftForeArm  7.3877 -76.9733 -71.0536
LeftHand  -1.18994 2.00961 39.7906
RightShoulder  1.8177 6.66877 10.6621
RightArm  21.9755 -3.23749 58.0874
RightForeArm  66.2813 69.3472 143.308
RightHand  5.79245 -22.6937 -36.6273
LeftUpLeg  -32.8772 -11.8846 1.48445
LeftLeg  36.1002 -8.56859 -6.30013
LeftFoot  -5.57385 0.354252 -6.36589
LeftToes  3.40148e-010 1.80944e-010 1.01921e-010
492
root  -1.96309 36.8583 14.3871 -173.84 -58.8593 174.667
RightUpLeg  -3.80307 -6.33137 -16.7413
RightLeg  42.1166 1.86986 1.51861
RightFoot  -12.6961 0.276698 30.1238
RightToes  -1.39699e-009 0 -3.6325e-017
Spine  20.0858 4.2091 3.27131
Spine1  18.3679 -0.00337034 14.5171
HEad  -32.7026 -49.3802 19.7684
LeftShoulder1  1.01987 -4.41725 -5.02693
LeftArm  19.2614 -35.8603 -77.5365
LeftForeArm  8.0094 -77.0255 -71.7832
LeftHand  -1.20491 1.98092 39.9407
RightShoulder  1.83301 6.73342 10.7035
RightArm  20.841 -2.9966 58.1498
RightForeArm  72.9665 68.4201 145.502
RightHand  2.61668 -15.1095 -30.9497
LeftUpLeg  -32.7807 -11.6235 1.50946
LeftLeg  35.8566 -8.70928 -6.3504
LeftFoot  -5.31453 0.369663 -6.4129
LeftToes  3.40148e-010 1.80944e-010 1.01921e-010
493
root  -1.90655 36.8962 14.3587 -173.764 -58.7413 174.57
RightUpLeg  -3.73228 -6.2446 -16.6617
RightLeg  41.8218 1.75434 1.39153
RightFoot  -12.8101 0.306241 30.1007
RightToes  -1.39699e-009 0 -3.6325e-017
Spine  20.1334 4.2999 3.40994
Spine1  18.2785 0.172659 14.4286
HEad  -32.7324 -49.3921 19.8175
LeftShoulder1  1.01011 -4.38306 -4.95048
LeftArm  19.4725 -36.0932 -77.5768
LeftForeArm  9.0297 -77.0704 -72.2828
LeftHand  -1.29322 1.7388 39.9919
RightShoulder  1.83773 6.86181 10.5065
RightArm  19.6958 -2.86622 58.2111
RightForeArm  75.4495 67.8345 146.633
RightHand  1.61735 -11.8591 -28.0174
LeftUpLeg  -32.6199 -11.2247 1.48807
LeftLeg  35.4832 -8.9328 -6.43016
LeftFoot  -4.95264 0.397508 -6.58602
LeftToes  3.40148e-010 1.80944e-010 1.01921e-010
494
root  -1.84268 36.9638 14.3444 -173.639 -58.4809 174.26
RightUpLeg  -3.45071 -5.70041 -16.6987
RightLeg  41.175 1.80056 1.40047
RightFoot  -12.9005 0.330993 30.1762
RightToes  -1.39699e-009 0 -3.6325e-017
Spine  19.9928 4.39822 3.35062
Spine1  18.5426 0.239803 14.4069
HEad  -32.3154 -49.3707 19.5768
LeftShoulder1  1.01308 -4.38188 -4.995
LeftArm  19.42 -36.2786 -77.5678
LeftForeArm  8.22251 -77.0026 -71.2845
LeftHand  -1.44833 1.39324 40.7956
RightShoulder  1.79904 6.79583 10.2155
RightArm  17.9246 -1.21997 58.3856
RightForeArm  74.1515 66.9498 148.101
RightHand  -0.530626 -3.03635 -26.0363
LeftUpLeg  -32.1231 -10.3288 1.18769
LeftLeg  34.7968 -9.2606 -6.50621
LeftFoot  -4.40165 0.435875 -6.75129
LeftToes  3.40148e-010 1.80944e-010 1.01921e-010
